inDegrees=no
num_controls=7
num_derivatives=13
num_iterations=102
num_multipliers=7
num_parameters=0
num_slacks=7
num_states=26
objective=0.448462
objective_accelerations=0.049411
objective_balance=0.007656
objective_effort=0.037036
objective_height=0.349418
objective_ligament=0.004940
solver_duration=1449.381773
status=Solve_Succeeded
success=true
DataType=double
version=3
OpenSimVersion=4.5
endheader
time	/jointset/ground_pelvis/pelvis_tilt/value	/jointset/ground_pelvis/pelvis_tx/value	/jointset/ground_pelvis/pelvis_ty/value	/jointset/hip_l/hip_flexion_l/value	/jointset/hip_l/hip_adduction_l/value	/jointset/hip_l/hip_rotation_l/value	/jointset/back/lumbar_extension/value	/jointset/patellofemoral_l/patellar_flexion_l/value	/jointset/knee_l/knee_flexion_l/value	/jointset/knee_l/knee_adduction_l/value	/jointset/knee_l/knee_rotation_l/value	/jointset/ankle_l/ankle_angle_l/value	/jointset/subtalar_l/subtalar_angle_l/value	/jointset/ground_pelvis/pelvis_tilt/speed	/jointset/ground_pelvis/pelvis_tx/speed	/jointset/ground_pelvis/pelvis_ty/speed	/jointset/hip_l/hip_flexion_l/speed	/jointset/hip_l/hip_adduction_l/speed	/jointset/hip_l/hip_rotation_l/speed	/jointset/back/lumbar_extension/speed	/jointset/patellofemoral_l/patellar_flexion_l/speed	/jointset/knee_l/knee_flexion_l/speed	/jointset/knee_l/knee_adduction_l/speed	/jointset/knee_l/knee_rotation_l/speed	/jointset/ankle_l/ankle_angle_l/speed	/jointset/subtalar_l/subtalar_angle_l/speed	/forceset/tau_hip_flexion_l	/forceset/tau_hip_adduction_l	/forceset/tau_hip_rotation_l	/forceset/tau_knee_flexion_l	/forceset/tau_ankle_angle_l	/forceset/tau_subtalar_angle_l	/forceset/tau_lumbar_extension	lambda_cid13_p0	lambda_cid13_p1	lambda_cid13_p2	lambda_cid13_p3	lambda_cid13_p4	lambda_cid13_p5	lambda_cid14_p0	/jointset/ground_pelvis/pelvis_tilt/accel	/jointset/ground_pelvis/pelvis_tx/accel	/jointset/ground_pelvis/pelvis_ty/accel	/jointset/hip_l/hip_flexion_l/accel	/jointset/hip_l/hip_adduction_l/accel	/jointset/hip_l/hip_rotation_l/accel	/jointset/back/lumbar_extension/accel	/jointset/patellofemoral_l/patellar_flexion_l/accel	/jointset/knee_l/knee_flexion_l/accel	/jointset/knee_l/knee_adduction_l/accel	/jointset/knee_l/knee_rotation_l/accel	/jointset/ankle_l/ankle_angle_l/accel	/jointset/subtalar_l/subtalar_angle_l/accel	gamma_cid13_p0	gamma_cid13_p1	gamma_cid13_p2	gamma_cid13_p3	gamma_cid13_p4	gamma_cid13_p5	gamma_cid14_p0
0.5	-0.4511098555162313	-0.07797901794595989	0.7632522830121026	1.267501473964219	-0.309810680463277	-0.05063719790265022	-0.3301579592334263	0.6771440685185377	0.6771440685185409	-0.1732106991421266	0.1739962514966293	0.02556717274436359	-0.05128930096098943	-0.7551394154755643	-0.2805694435615789	-0.4963521318411193	2.38837595503145	-0.03638214657862222	0.6052597096183842	-0.6225321510872036	1.751969895250047	1.751969895250074	-0.001921445266007618	0.002912951987275155	0.2097305802708066	-0.01538551917946781	-0.2467736992867949	0.02407447276725143	-0.02128079272874051	-0.2021336781266094	0.1512902613154014	0.03450037176254094	0.2213376999529257	9.504984040586589	-19.36545509227547	5.789219613282057	-6.05884124378019	-607.5402092838692	-52.83688787119398	-28.97385086211264	0.6246388388907298	0.7146053423504057	-0.3129175096626359	-1.535992054059501	0.5796643228424377	-0.2781037703166613	1.774973501703725	-1.079740485606017	-1.079740485606018	0.01872776238528153	-0.0345657320207798	-0.1047896985760272	0.5600869704164703	-2.394928196906463e-07	-8.125293806034928e-07	1.196237718682026e-06	3.958258169610095e-08	-3.436060032428325e-07	5.99993945179907e-08	-2.866412343693296e-07
0.51	-0.4586282842348743	-0.08074863597293998	0.7582741950713963	1.291303960067946	-0.3101471620883682	-0.04459796263733837	-0.3362945934978335	0.6946067596472366	0.6946067596472425	-0.1732325974255063	0.1740236467849751	0.02765825160925937	-0.05141693570064462	-0.7484424594201541	-0.2733285724326551	-0.4991611273784292	2.371792256946634	-0.03094018292169815	0.6025643148615567	-0.6047278767737686	1.740315248497616	1.740315248497657	-0.00251395987359737	0.002533865504439205	0.2084349189017366	-0.01016996157771685	-0.2551036795258222	0.02469573050689702	-0.02138708860680867	-0.2033849357290693	0.1514143109357749	0.03507282987325223	0.227783167756678	9.292350829894914	-19.46301323471504	5.67475158836392	-6.057536760963814	-612.1897600274937	-52.43674818001749	-27.96842634786068	0.707765722182652	0.732685804679471	-0.2493161126138599	-1.768957032192796	0.5224574523333543	-0.2689965237956056	1.793178149232348	-1.246226112427391	-1.246226112425328	-0.106650286666589	-0.04473791976218866	-0.149495591603701	0.4979468238661517	-2.972534034069658e-07	-6.478977284185022e-07	1.483615607598855e-06	1.056525797720748e-07	-3.682049978371039e-07	1.166104918072499e-07	-3.124483169173762e-07
0.52	-0.4660766350462999	-0.08344507372732761	0.7532711320679472	1.314930729521526	-0.3104300250638453	-0.03858642915868066	-0.3422511802684925	0.711945324439938	0.7119453244399466	-0.1732621026978247	0.1740462196458232	0.02973486561335821	-0.05149328353051996	-0.7411238340320846	-0.2659333890430874	-0.5013471443896508	2.353232625001811	-0.02565841665578611	0.5997193522875366	-0.5865226523375751	1.727144628050554	1.727144628050609	-0.003442843053720698	0.001948466487730127	0.206837608111418	-0.005128137223496185	-0.2634336597648493	0.02531698824654289	-0.02149338448487714	-0.204636193331529	0.1515383605561486	0.03564528798396384	0.2342286355604303	9.074094543100536	-19.56328620593304	5.56494270497326	-6.064011587231922	-616.9393676702491	-52.11523858134741	-26.95441752503405	0.7489727054225896	0.7454677944791859	-0.1883218044449993	-1.931178826061057	0.5476248446400352	-0.3080173337551686	1.855163526255446	-1.382935224532147	-1.382935224532142	-0.04854595212143388	-0.07582823879397384	-0.1651195828257527	0.5253403209104113	-2.982280300087811e-07	-5.80496408439385e-07	1.510374004386202e-06	1.231722083924017e-07	-3.55737968661513e-07	1.528964398581694e-07	-3.077328152223356e-07
0.53	-0.4734489574546879	-0.08606688415910473	0.7482493296796693	1.338362545832149	-0.3106604937140936	-0.03260534700618102	-0.3480236468267677	0.7291450205480746	0.7291450205480777	-0.1733011021250055	0.1740627921770703	0.03179418510306748	-0.05151966578395153	-0.73325227196856	-0.2584110731688948	-0.5029078289870225	2.332835894835002	-0.02043164418406799	0.5963180095274994	-0.5679068603069725	1.712582473446448	1.712582473446481	-0.004256989449900087	0.00143922959772508	0.2049936587401376	-0.0001431170739029405	-0.2716116013674054	0.02572565056552649	-0.02159759969605953	-0.2059660483249897	0.1517068563941328	0.03608869998369998	0.2405067710457301	8.868288296596136	-19.61206371909605	5.449629673052821	-6.039232223427137	-621.6428551206445	-51.74183460806364	-25.94065326159197	0.8194680884278513	0.7582835802923894	-0.1241859834744645	-2.138175848302622	0.5106227732531226	-0.3833272813153739	1.8743568930379	-1.524612546703104	-1.524612546706367	-0.08286744613148991	-0.02782073054820937	-0.1989233300712578	0.48577098528184	-2.792868357633713e-07	-5.274382664810866e-07	1.429311678943805e-06	1.18812671593472e-07	-3.274744887656027e-07	1.721797160836596e-07	-2.893395539052966e-07
0.54	-0.4807399202161187	-0.08861293741285933	0.7432150716061994	1.361581543693841	-0.3108386107746616	-0.02666370518811911	-0.3536080414944219	0.7461927437164997	0.7461927437164968	-0.1733452467087013	0.1740764024761284	0.03383408695590556	-0.05149606021122755	-0.7248519046406166	-0.2507819534385857	-0.5038382814280428	2.310668935215721	-0.01518809871973309	0.5918312853999668	-0.5489082742133605	1.696750040108213	1.696750040108223	-0.004471874356691502	0.001356020049941381	0.2029540807371739	0.004869428007612638	-0.2797895429699612	0.02613431288451044	-0.02170181490724282	-0.2072959033184502	0.151875352232117	0.0365321119834365	0.2467849065310301	8.658377573451789	-19.66387552937473	5.33908792116164	-6.032665766942871	-626.4284448948239	-51.44304023679121	-24.92786180046416	0.8547337583063899	0.76682856570251	-0.06227537317470518	-2.285224716555522	0.55097944316339	-0.5250936072543002	1.931722338857302	-1.63699097135795	-1.636990971357949	0.07130634575615902	0.009377229650187485	-0.204245309162425	0.5308453072948769	-2.383111163252867e-07	-4.902491725458219e-07	1.228958341672754e-06	9.024639858600275e-08	-2.817340846684881e-07	1.726515256086745e-07	-2.55813452155408e-07
